<svg xmlns:rdf="http://www.w3.org/1999/02/22-rdf-syntax-ns#" xmlns="http://www.w3.org/2000/svg" height="80" width="272" version="1.1" xmlns:cc="http://creativecommons.org/ns#" xmlns:dc="http://purl.org/dc/elements/1.1/" viewBox="0 0 272 80">
<defs>
<linearGradient id="a" x1="156" gradientUnits="userSpaceOnUse" y1="325" gradientTransform="matrix(.403 0 0 .403 9.95 474)" x2="151" y2="120">
<stop style="stop-color:#36d1dc" offset="0"/>
<stop style="stop-color:#5b86e5" offset="1"/>
</linearGradient>
</defs>
<g transform="translate(-31.7 -525)">
<path style="fill:url(#a)" d="m112 565a40 40 0 0 1 -39.9 40 40 40 0 0 1 -40.1 -39.9 40 40 0 0 1 39.8 -40.1 40 40 0 0 1 40.2 39.7"/>
<text y="577.87415" x="128.5473" style="letter-spacing:0px;font-size:44.2px;word-spacing:0px;font-family:sans-serif;line-height:125%;fill:#2e2e2e" xml:space="preserve"><tspan y="577.87415" x="128.5473" style="font-size:41.2px;font-family:&apos;Source Sans Pro&apos;;font-weight:bold;fill:#2e2e2e"><tspan y="577.87415" x="128.5473" style="font-size:41.2px;font-family:&apos;Source Sans Pro&apos;;font-weight:bold;fill:#2e2e2e">Laratrust</tspan></tspan></text>
<g style="fill:#fff" transform="matrix(.472 0 0 .472 -7.09 451)">
<g transform="translate(33.1 -12.6)">
<g style="fill:#fff">
<path style="fill:#fff" d="m168 251v-22.5c0-18.8-15.2-34-34-34s-34 15.2-34 34v22.5c-2.86 0.93-5.71 1.89-8.5 3.06v51c27.2 11.3 57.8 11.3 85 0v-51c-2.79-1.16-5.65-2.13-8.5-3.06zm-25.5 45.6h-17l3.17-19c-1.89-1.56-3.17-3.84-3.17-6.48 0-4.7 3.8-8.5 8.5-8.5s8.5 3.8 8.5 8.5c0 2.64-1.28 4.92-3.17 6.48l3.17 19zm17-47.9c-16.8-3.99-34.2-3.99-51 0v-20.1c0-14.1 11.4-25.5 25.5-25.5s25.5 11.4 25.5 25.5v20.1z"/>
<path style="fill:#fff" d="m134 196c-17.2 0-31.2 14-31.2 31.2v17.5c0.0144-0.004 0.009 0.00003 0.0322-0.005 0.009-0.002 0.0191 0 0.0286 0 0.067 0 0.133 0.00001 0.2 0 0.064 0 0.127-0.00005 0.191 0 0.115 0 0.231-0.00019 0.345 0 0.164 0.00052 0.328 0.00016 0.492-0.002 0.201 0.00001 0.404 0.004 0.605 0.005 0.0471-0.0112 0.086-0.0205 0.136-0.0269 0.009-0.0009 0.0181 0.003 0.0268 0.002 0.0836-0.005 0.163-0.0391 0.247-0.0394h1.27c0.121 0.00001 0.242 0.00018 0.363 0 0.0679-0.00015 0.136 0.00014 0.204 0 0.135-0.00091 0.271-0.006 0.406 0.004 0.056 0.003 0.121 0.012 0.177 0.004 0.0512-0.008 0.101-0.0275 0.152-0.0359 0.0146-0.003 0.03 0 0.0448 0h0.701c0.0967 0.00001 0.193 0 0.29 0 0.138 0 0.276 0.00006 0.413 0 0.0852-0.00009 0.171-0.00092 0.256 0 0.0873 0.00008 0.174-0.005 0.261 0 0.0215 0.002 0.0447-0.00092 0.0643 0.007 0.003 0.00091-0.0117 0.003-0.009 0.004 0.004 0.002 0.0105-0.00085 0.0142-0.002 0.0149-0.004 0.0299-0.009 0.0448-0.0142 0.0354-0.008 0.0701-0.0165 0.106-0.0251 0.058-0.00001 0.117 0.00067 0.175 0 0.0662-0.002 0.131-0.004 0.197 0.007-0.003 0.004-0.0136 0.0125-0.009 0.0107 0.0752-0.0285 0.148-0.0609 0.231-0.0482 0.0848 0.0151 0.0715 0.0108 0.0251 0.007-0.006-0.00047 0.0119 0.002 0.0179 0.002 0.0332-0.002 0.064-0.008 0.0949-0.0125v-17.3c0-12.9 10.5-23.4 23.4-23.4s23.4 10.5 23.4 23.4v17.1c0.779 0.0113 1.13 0.0498 1.79 0.284 0.0734 0.013 0.128 0.0232 0.202 0.0359-0.0678-0.00093-0.0584-0.00093-0.1-0.002 0.0239 0.008 0.0359 0.0105 0.0609 0.0197 0.263 0.0229 0.719 0.0659 1.23 0.15 0.217 0.0356 0.432 0.0906 0.642 0.157 0.144 0.0157 0.204 0.0263 0.195 0.0358 0.345 0.0105 0.64 0.0635 1.4 0.252 0.139 0.0345 0.48 0.0817 0.565 0.127l0.002 0.002c0.112 0.009 0.224 0.0203 0.336 0.0303 0.388 0.0813 0.775 0.164 1.16 0.245-0.0908-0.0148-0.361-0.0654-0.272-0.0448 0.19 0.0439 0.382 0.0731 0.573 0.113v-18.6c0-17.2-14-31.2-31.2-31.2zm28.7 49.3c-0.0402-0.005-0.162 0.006-0.122 0.0107 0.0755 0.008 0.152 0.0124 0.227 0.0197-0.0352-0.009-0.0705-0.0254-0.106-0.0304zm2.17 0.394c0.113 0.027 0.137 0.0263 0.342 0.0697v-0.009c-0.22-0.0404-0.455-0.0877-0.342-0.0609zm-51.9 1.4c-0.002 0.00091-0.004 0.003-0.005 0.004l0.004 0.004c0.00024-0.00092 0.002-0.006 0.002-0.007z"/>
</g>
<rect style="stroke:#fff;stroke-width:7.78;fill:#fff" height="3.16" width=".0364" y="246" x="107"/>
<rect style="stroke:#fff;stroke-width:7.78;fill:#fff" height="3.16" width=".0364" y="246" x="161"/>
</g>
</g>
</g>
</svg>
