<svg xmlns="http://www.w3.org/2000/svg" viewBox="0 0 272 80"><defs><linearGradient id="a" x1="156" gradientUnits="userSpaceOnUse" y1="325" gradientTransform="matrix(.403 0 0 .403 -21.8 -51)" x2="151" y2="120"><stop offset="0" stop-color="#36d1dc"/><stop offset="1" stop-color="#5b86e5"/></linearGradient></defs><path d="M80.3 40a40 40 0 0 1-40.2 40A40 40 0 0 1 0 40 40 40 0 0 1 39.8 0a40 40 0 0 1 40.5 39" fill="url(#a)"/><path d="M100 25.9h4.78v22.9h11.2v4.04h-16v-26.9zM120 47.4q0-3.25 2.84-5.03 2.84-1.77 9.06-2.47 0-.783-.206-1.48-.206-.742-.66-1.28-.41-.577-1.11-.865-.658-.33-1.69-.33-1.52 0-2.97.577-1.4.577-2.72 1.4l-1.73-3.17q1.69-1.07 3.75-1.85 2.1-.783 4.53-.783 3.83 0 5.69 2.27 1.85 2.22 1.85 6.47v12h-3.87l-.37-2.22h-.124q-1.36 1.15-2.93 1.94-1.52.782-3.34.782-2.68 0-4.37-1.61-1.65-1.65-1.65-4.33zm4.61-.37q0 1.36.783 1.98.824.617 2.1.617 1.24 0 2.27-.577t2.14-1.65v-4.53q-2.06.247-3.46.66t-2.27.947q-.824.494-1.19 1.15-.37.66-.37 1.4zM142 32.6h3.91l.33 3.58h.165q1.07-1.98 2.6-3.01 1.52-1.07 3.13-1.07 1.44 0 2.31.412l-.824 4.12q-.535-.165-.988-.247-.453-.082-1.11-.082-1.19 0-2.51.948-1.32.907-2.27 3.21v12.4h-4.74v-20.2zM155 47.4q0-3.25 2.84-5.03 2.84-1.77 9.06-2.47 0-.783-.206-1.48-.206-.742-.66-1.28-.41-.577-1.11-.865-.658-.33-1.69-.33-1.52 0-2.97.577-1.4.577-2.72 1.4l-1.73-3.17q1.69-1.07 3.75-1.85 2.1-.783 4.53-.783 3.83 0 5.69 2.27 1.85 2.22 1.85 6.47v12h-3.87l-.37-2.22h-.124q-1.36 1.15-2.93 1.94-1.52.782-3.34.782-2.68 0-4.37-1.61-1.65-1.65-1.65-4.33zm4.61-.37q0 1.36.783 1.98.824.617 2.1.617 1.24 0 2.27-.577t2.14-1.65v-4.53q-2.06.247-3.46.66t-2.27.947q-.824.494-1.19 1.15-.37.66-.37 1.4zM179 36.4h-2.88v-3.54l3.13-.206.577-5.52h3.96v5.52h5.15v3.75h-5.15v9.64q0 3.54 2.84 3.54.536 0 1.07-.124.577-.124 1.03-.33l.824 3.5q-.823.288-1.9.494-1.03.247-2.22.247-1.77 0-3.01-.535-1.19-.536-1.98-1.48-.74-.99-1.11-2.31-.33-1.36-.33-3.01v-9.64zM193 32.6h3.91l.33 3.58h.165q1.07-1.98 2.6-3.01 1.52-1.07 3.13-1.07 1.44 0 2.31.412l-.824 4.12q-.535-.165-.988-.247-.453-.082-1.11-.082-1.19 0-2.51.948-1.32.907-2.27 3.21v12.4h-4.74v-20.2zM208 32.6h4.74v12.1q0 2.51.742 3.54t2.39 1.03q1.32 0 2.31-.66 1.03-.658 2.18-2.14v-13.8h4.74v20.2h-3.87l-.37-2.97h-.125q-1.32 1.57-2.88 2.51-1.52.95-3.63.95-3.25 0-4.74-2.06-1.48-2.1-1.48-5.97v-12.7zM231 47.5q1.36 1.07 2.68 1.69 1.36.577 2.93.577 1.65 0 2.43-.66.783-.7.783-1.77 0-.617-.37-1.07-.372-.493-.99-.864t-1.4-.66q-.783-.33-1.57-.658-.99-.37-2.02-.865t-1.85-1.19q-.783-.7-1.32-1.61-.494-.948-.494-2.22 0-2.68 1.98-4.37t5.4-1.69q2.1 0 3.79.742t2.93 1.69l-2.18 2.88q-1.07-.783-2.18-1.24-1.07-.494-2.27-.494-1.52 0-2.27.66-.7.617-.7 1.57 0 .617.33 1.07.37.41.947.74t1.32.62q.783.287 1.61.576 1.03.37 2.06.865 1.03.452 1.85 1.15.865.7 1.36 1.73.536.988.536 2.39 0 1.32-.536 2.47-.494 1.11-1.48 1.98-.99.823-2.47 1.32-1.48.493-3.38.493-2.1 0-4.16-.783-2.02-.824-3.5-2.02l2.22-3.05zM250 36.4h-2.88v-3.54l3.13-.206.577-5.52h3.96v5.52h5.15v3.75h-5.15v9.64q0 3.54 2.84 3.54.536 0 1.07-.124.577-.124 1.03-.33l.824 3.5q-.823.288-1.9.494-1.03.247-2.22.247-1.77 0-3.01-.535-1.19-.536-1.98-1.48-.74-.99-1.11-2.31-.33-1.36-.33-3.01v-9.64z" fill="#2e2e2e"/><g fill="#fff"><path d="M56.165 38.62V28c0-8.872-7.175-16.047-16.048-16.047S24.07 19.128 24.07 28v10.62c-1.35.44-2.696.894-4.013 1.446v24.072c12.838 5.333 27.28 5.333 40.12 0V40.066c-1.317-.548-2.667-1.006-4.012-1.445zM44.13 60.146h-8.025l1.496-8.968c-.89-.737-1.495-1.813-1.495-3.06 0-2.217 1.793-4.01 4.012-4.01s4.012 1.793 4.012 4.01c0 1.247-.605 2.323-1.497 3.06l1.496 8.968zm8.023-22.61c-7.93-1.882-16.143-1.882-24.072 0V28.05c0-6.657 5.382-12.037 12.037-12.037s12.036 5.38 12.036 12.036v9.486z"/><path d="M40.117 12.66c-8.12 0-14.727 6.61-14.727 14.728v8.26c.007-.002.005 0 .016-.002H26.282c.023-.004.04-.01.064-.012.005 0 .01.002.013 0 .04 0 .078-.017.118-.017H27.343c.064 0 .128-.003.192 0 .026.003.057.007.084.003.023-.003.046-.013.07-.017h.803c.042 0 .083-.002.124 0 .01 0 .02 0 .03.004.002 0-.005 0-.004.002l.007-.002.022-.007.05-.01h.083c.03-.002.062-.003.093.002l-.005.005c.036-.013.07-.028.11-.022.04.007.033.005.01.003h.01c.015 0 .03-.003.045-.005v-8.166c0-6.088 4.956-11.044 11.044-11.044s11.045 4.956 11.045 11.044v8.072c.368.004.534.022.845.133l.095.017h-.047l.03.008c.123.01.338.03.58.07.102.018.203.044.303.075.067.007.096.012.092.017.162.005.302.03.66.12.066.015.227.037.267.06l.16.014.547.116c-.044-.007-.17-.03-.13-.022.09.02.18.035.27.054v-8.78c0-8.118-6.607-14.726-14.725-14.726zm13.546 23.27c-.02 0-.076.004-.057.006l.107.01c-.017-.005-.034-.013-.05-.015zm1.024.187c.054.013.065.012.162.033v-.004c-.105-.02-.216-.042-.163-.03zm-24.496.66s0 .002-.002.003l.002.002v-.004z"/><path stroke="#fff" stroke-width="3.67" d="M27.27 36.25h.016v1.49h-.017zM53.07 36.25h.016v1.49h-.017z"/></g></svg>